<svg xmlns="http://www.w3.org/2000/svg" width="530" height="530"><path fill="none" d="M-1-1h532v532H-1z"/><g><path fill="#00FFA3" d="M88.89 372.982A17.029 17.029 0 01100.923 368h416.461c7.586 0 11.384 9.174 6.017 14.536l-82.29 82.226a17.026 17.026 0 01-12.037 4.983H12.615c-7.586 0-11.384-9.174-6.018-14.537l82.292-82.226zM88.89 65.983A17.028 17.028 0 01100.923 61h416.461c7.586 0 11.384 9.174 6.017 14.536l-82.29 82.227a17.03 17.03 0 01-12.037 4.982H12.615c-7.586 0-11.384-9.174-6.018-14.536L88.89 65.982zM441.111 219.11a17.03 17.03 0 00-12.036-4.983H12.615c-7.586 0-11.384 9.173-6.018 14.536L88.89 310.89a17.03 17.03 0 0012.035 4.983h416.461c7.586 0 11.384-9.174 6.017-14.537l-82.29-82.225z"/></g></svg>